<svg xmlns="http://www.w3.org/2000/svg" width="368.547" height="265" viewBox="0 0 368.547 265">
    <defs>
        <style>
            .cls-12,.cls-13,.cls-16,.cls-18,.cls-24{fill:none}.cls-24{stroke:#66b0f0}.cls-11,.cls-12,.cls-13,.cls-16,.cls-17,.cls-18,.cls-22,.cls-24,.cls-3{stroke-miterlimit:10}.cls-11,.cls-17,.cls-22,.cls-3,.cls-6{fill:#fff}.cls-17,.cls-18,.cls-3{stroke:#3fb1b5}.cls-16,.cls-3{stroke-linecap:round}.cls-4{fill:#fe5244}.cls-7{fill:#a0505a}.cls-8{fill:#73325a}.cls-11,.cls-12,.cls-13{stroke:#fe5244}.cls-13{stroke-linejoin:round}.cls-14{fill:#3fb1b5}.cls-16{stroke:#73325a}.cls-22{stroke:#ffcf2d}.cls-20{fill:#d0f0e4}
        </style>
    </defs>
    <g id="man-feed_back-right" transform="translate(-935.453 -3603)">
        <g id="Group_2495" data-name="Group 2495" transform="translate(952.137 3867)">
            <path id="Line_33" fill="none" stroke="#66b0f0" stroke-miterlimit="10" stroke-width="2px" d="M0 0L351.662 0" data-name="Line 33"/>
        </g>
        <path id="Rectangle_166" fill="#ffecab" d="M88 0h229v191H17a17 17 0 0 1-17-17V88A88 88 0 0 1 88 0z" data-name="Rectangle 166" transform="translate(987 3615)"/>
        <g id="_x32__CHARACTER" transform="translate(1045.228 3603)">
            <g id="SHIRT" transform="translate(13.679 29.275)">
                <path id="Path_3972" d="M2650.719 1616.9h77.555c15.677 0 30.325 8.3 39.193 22.167l35.533 56.246c2.93 4.574.278 10.807-4.888 10.807h-39.55l-15.8-22.188c-1.86-2.808-5.978-1.574-6.235 1.872l-3.187 41.781h-84.582l-7.126-42.483a3.387 3.387 0 0 0-6.235-1.6l-14.509 20.082H2573.6l36.9-62.841c8.726-14.843 23.908-23.843 40.219-23.843z" class="cls-3" data-name="Path 3972" transform="translate(-2573.599 -1616.9)"/>
                <g id="Group_2384" data-name="Group 2384" transform="translate(104.65 21.699)">
                    <path id="Path_3973" d="M3128.369 1718.9l13.509 44.865H3108.5l14.827-44.865z" class="cls-4" data-name="Path 3973" transform="translate(-3108.5 -1718.9)"/>
                    <g id="Group_2383" data-name="Group 2383" opacity="0.2" transform="translate(1.915 .106)">
                        <g id="Group_2376" data-name="Group 2376" transform="translate(6.297)">
                            <g id="Group_2373" data-name="Group 2373" transform="translate(0 17.231)">
                                <path id="Path_3974" d="M3147.994 1800.4v27.528h-.894V1803.1l.3-.915z" class="cls-6" data-name="Path 3974" transform="translate(-3147.1 -1800.4)"/>
                            </g>
                            <g id="Group_2374" data-name="Group 2374" transform="translate(9.509)">
                                <path id="Rectangle_164" d="M0 0H0.893V44.759H0z" class="cls-6" data-name="Rectangle 164"/>
                            </g>
                            <g id="Group_2375" data-name="Group 2375" transform="translate(19.018 24.315)">
                                <path id="Path_3975" d="M3237.393 1836.678v17.466h-.894V1833.7z" class="cls-6" data-name="Path 3975" transform="translate(-3236.499 -1833.7)"/>
                            </g>
                        </g>
                        <g id="Group_2382" data-name="Group 2382">
                            <g id="Group_2377" data-name="Group 2377" transform="translate(0 38.037)">
                                <path id="Path_3976" d="M3147.219 1899.115H3117.5l.3-.915h29.144z" class="cls-6" data-name="Path 3976" transform="translate(-3117.5 -1898.2)"/>
                            </g>
                            <g id="Group_2378" data-name="Group 2378" transform="translate(3.148 28.527)">
                                <path id="Path_3977" d="M3156 1854.415h-23.7l.3-.915h23.125z" class="cls-6" data-name="Path 3977" transform="translate(-3132.301 -1853.5)"/>
                            </g>
                            <g id="Group_2379" data-name="Group 2379" transform="translate(6.297 19.018)">
                                <path id="Path_3978" d="M3164.8 1809.715h-17.7l.3-.915h17.125z" class="cls-6" data-name="Path 3978" transform="translate(-3147.1 -1808.8)"/>
                            </g>
                            <g id="Group_2380" data-name="Group 2380" transform="translate(9.445 9.509)">
                                <path id="Path_3979" d="M3173.579 1765.015H3161.9l.3-.915h11.1z" class="cls-6" data-name="Path 3979" transform="translate(-3161.9 -1764.1)"/>
                            </g>
                            <g id="Group_2381" data-name="Group 2381" transform="translate(12.594)">
                                <path id="Path_3980" d="M3182.358 1720.315h-5.658l.3-.915h5.105z" class="cls-6" data-name="Path 3980" transform="translate(-3176.7 -1719.4)"/>
                            </g>
                        </g>
                    </g>
                </g>
                <path id="Path_3981" d="M3230.3 1638.131l5.446 5.85 17.55-27.081h-15.55z" class="cls-3" data-name="Path 3981" transform="translate(-3101.303 -1616.9)"/>
                <path id="Path_3982" d="M3063.785 1638.131l-5.467 5.85-19.018-27.081h17.019z" class="cls-3" data-name="Path 3982" transform="translate(-2947.873 -1616.9)"/>
            </g>
            <g id="HAND_1_" transform="translate(171.656 100.988)">
                <path id="Path_3983" d="M3475.209 1977.39a22.541 22.541 0 0 1-19.294 22.358l-48.142 7.084-10.572 1.553v-40.93l3.255-.766 46.97-11.147a22.537 22.537 0 0 1 23.784 9.169 22.1 22.1 0 0 1 3.999 12.679z" class="cls-7" data-name="Path 3983" transform="translate(-3397.2 -1954.933)"/>
                <path id="Path_3984" d="M3407.773 2050.342l-10.573 1.558v-40.93l3.255-.766z" class="cls-8" data-name="Path 3984" transform="translate(-3397.2 -1998.443)"/>
            </g>
            <g id="LAPTOP" transform="translate(78.739 95.637)">
                <path id="Path_3985" fill="#ffcf2d" d="M3022.7 1999.066h-101.2v-60.736a8.53 8.53 0 0 1 8.531-8.53h84.114a8.53 8.53 0 0 1 8.531 8.53v60.735z" data-name="Path 3985" transform="translate(-2921.5 -1929.8)"/>
                <g id="Group_2494" data-name="Group 2494" transform="translate(42.631 27.055)">
                    <path id="Path_1926" d="M1453.89 1616.976a9.438 9.438 0 0 1-6.715-2.789 7.707 7.707 0 0 1 0-10.934 6.334 6.334 0 0 1 8.953 0 5.215 5.215 0 0 1 0 7.375 4.318 4.318 0 0 1-6.109 0 .739.739 0 0 1 1.046-1.046 2.846 2.846 0 0 0 4.036 0 3.743 3.743 0 0 0 0-5.3 4.872 4.872 0 0 0-6.9 0 6.2 6.2 0 0 0-1.835 4.44 6.307 6.307 0 0 0 1.835 4.44 8.017 8.017 0 0 0 11.338 0 .739.739 0 0 1 1.046 1.046 9.423 9.423 0 0 1-6.695 2.768z" class="cls-6" data-name="Path 1926" transform="translate(-1444.9 -1601.4)"/>
                </g>
            </g>
            <g id="LEGS_1_" transform="translate(0 97.828)">
                <g id="RIGHT_1_" transform="translate(26.47 49.794)">
                    <path id="LEG_1_" fill="#0096a0" d="M3088.6 2191.545l107.133-16.019a34.462 34.462 0 0 1 39.632 34.079 34.455 34.455 0 0 1-34.463 34.463H3089.3z" transform="translate(-3009.062 -2175.128)"/>
                    <g id="SHOES_1_" transform="translate(0 37.639)">
                        <path id="Path_3987" d="M2716.008 2392.743l-64.479 12.445c-8.212 1.744-16.466-5.106-16.827-13.955l-.957-23.528c-.489-11.913 10.934-19.082 21.7-13.977z" class="cls-11" data-name="Path 3987" transform="translate(-2633.729 -2352.059)"/>
                        <path id="Path_3988" d="M2673.675 2406.884c-7.935 1.659-15.955-5-16.338-13.615l-1-22.847c-.51-11.572 10.509-18.465 20.933-13.487" class="cls-12" data-name="Path 3988" transform="translate(-2651.513 -2354.606)"/>
                        <path id="Path_3989" d="M2735.8 2359.8l60.565 39.036-13.807 2.659z" class="cls-4" data-name="Path 3989" transform="translate(-2714.087 -2358.153)"/>
                        <g id="Group_2385" data-name="Group 2385" transform="translate(19.608 13.049)">
                            <path id="Path_3990" d="M2753 2429.887l-7.977 15.891-7.893-18.678-9.13 20.975" class="cls-13" data-name="Path 3990" transform="translate(-2727.553 -2424.185)"/>
                            <path id="Path_3991" d="M2725.9 2413.4l8.934 22.294 8.744-17.806 6.786 14.848" class="cls-13" data-name="Path 3991" transform="translate(-2725.9 -2413.4)"/>
                        </g>
                    </g>
                </g>
                <g id="LEFT_1_">
                    <g id="LEG">
                        <path id="Path_3992" d="M2650.9 2040.01c-3.186-2.936-12.4 3.744-20.6 14.912s-12.251 22.614-9.065 25.55c-.474-.32-60.349-42.44-97.5-71.18-9.445-7.3-14.433-19-14.433-30.846a40.142 40.142 0 0 1 7.454-23.528c12.593-17.423 35.921-18.593 49.86-2.51z" class="cls-14" data-name="Path 3992" transform="translate(-2509.3 -1941.06)"/>
                        <ellipse id="Ellipse_643" cx="26.187" cy="8.382" fill="#fe5244" stroke="#fff" stroke-miterlimit="10" data-name="Ellipse 643" rx="26.187" ry="8.382" transform="rotate(-50.563 192.84 -40.766)"/>
                    </g>
                    <g id="SHOES" transform="translate(113.049 102.673)">
                        <path id="Path_3993" d="M3179.818 2456.738l-11.956 20.295c-6.063 10.275-19.762 10.467-26.039.34l-20.125-32.42a75.885 75.885 0 0 1 6.3-8.807 64.335 64.335 0 0 1 13.211-12.446l32.037 12.19c7.828 2.999 11.061 13.21 6.572 20.848z" class="cls-11" data-name="Path 3993" transform="translate(-3121.7 -2423.7)"/>
                        <path id="Path_3994" d="M3236.938 2474.8c7.4 2.872 10.02 12.467 5.786 19.806l-11.274 19.465c-5.7 9.87-18.615 10.041-24.55.34" class="cls-12" data-name="Path 3994" transform="translate(-3188.776 -2463.929)"/>
                        <g id="Group_2386" data-name="Group 2386" transform="translate(8.85 10.658)">
                            <path id="Path_3995" d="M3163.3 2493.154l16.295-8.254-4.893 19.635 19.487-11.955" class="cls-13" data-name="Path 3995" transform="translate(-3163.301 -2482.539)"/>
                            <path id="Path_3996" d="M3203.252 2503.668l5.063-22.869-16.615 8.19 2.553-15.189" class="cls-13" data-name="Path 3996" transform="translate(-3185.658 -2473.801)"/>
                        </g>
                    </g>
                </g>
            </g>
            <g id="HEAD_3_" transform="translate(110.683)">
                <path id="HEAD_2_" d="M3123.023 1575.155a5.167 5.167 0 0 1-5.148 4.85h-4.7l-.3 4.957c-.255 4.084-4.319 8.254-8.552 8.254h-11.892c-4.212 0-8.3-4.169-8.551-8.254l-.3-4.957h-4.765a5.165 5.165 0 0 1-5.148-4.872 5.217 5.217 0 0 1 5.254-5.446h4.021l-.447-7.552a2.775 2.775 0 0 1 2.767-2.936h26.25a2.775 2.775 0 0 1 2.766 2.936l-.447 7.552h4.063a5.183 5.183 0 0 1 5.129 5.468z" class="cls-7" transform="translate(-3073.661 -1542.199)"/>
                <path id="HAIR_1_" d="M3133.155 1506.774h4.276s4.085-14.828.149-18.635-28.1-12.573-35.909-7.105c-5.7 4-2.6 25.741-2.6 25.741h3.149s12.7-9.105 14.7-8.318-5.744 4.616-4.191 5.361c5.807 2.787 16.253-7.318 18.657-7.318s1.769 10.274 1.769 10.274z" class="cls-8" transform="translate(-3093.004 -1479.285)"/>
                <g id="FACE" transform="translate(4.306 29.885)">
                    <path id="Path_3997" d="M3213.561 1621.05a6.58 6.58 0 0 0-6.361-.787" class="cls-16" data-name="Path 3997" transform="translate(-3183.097 -1619.767)"/>
                    <path id="Path_3998" d="M3187.47 1682.8s-1.532 3.276-6.169 1.574" class="cls-16" data-name="Path 3998" transform="translate(-3162.707 -1669.39)"/>
                    <path id="Path_3999" d="M3137.5 1621.487s5.637-1.255 7.339 2.234c1.042 2.149.532 9.658 1.745 9.743s3.042 0 3.042 0" class="cls-16" data-name="Path 3999" transform="translate(-3128.226 -1620.948)"/>
                    <ellipse id="Ellipse_644" cx="1" cy="1.659" class="cls-8" data-name="Ellipse 644" rx="1" ry="1.659" transform="translate(25.656 3.751)"/>
                    <ellipse id="Ellipse_645" cx="1" cy="1.659" class="cls-8" data-name="Ellipse 645" rx="1" ry="1.659" transform="translate(12.721 3.751)"/>
                    <path id="Path_4000" d="M3097.836 1624.1a3.939 3.939 0 0 0-3.936-3.7" class="cls-16" data-name="Path 4000" transform="translate(-3093.9 -1620.265)"/>
                    <path id="Path_4001" d="M3265.9 1623.736a4.17 4.17 0 0 1 4.148-3.936" class="cls-16" data-name="Path 4001" transform="translate(-3229.31 -1619.793)"/>
                </g>
            </g>
        </g>
        <g id="Group_2620" data-name="Group 2620" transform="translate(0 -48)">
            <g id="Group_2526" data-name="Group 2526" transform="translate(935.996 3774.141)">
                <path id="Path_3311" d="M1965.681 2474.483c1.43 3.364 1.009 10.284-6.187 10.188-8.926-.12-8.7-24.171-8.7-24.171s9.12.42 14.887 13.983z" class="cls-14" data-name="Path 3311" transform="translate(-1857.209 -2408.231)"/>
                <path id="Path_3312" d="M1376.963 2493.339c-2.234 4.733.769 8.542 3.292 7.232 4.409-2.295 6.307-8.193 6.307-8.193s-7.593-3.268-9.599.961z" class="cls-14" data-name="Path 3312" transform="translate(-1351.698 -2435.224)"/>
                <path id="Path_3313" d="M1724.3 2326.754c-4.782-9.575-10.175-14.128-18.813-14.128-14.548 0-23.883 15.569-25.661 35.7-.216-2.5-2.8-5.058-2.991-7.653-2.6-34.479 16.3-48.078 30.478-48.078 11.604-.007 14.5 16.668 16.987 34.159z" class="cls-17" data-name="Path 3313" transform="translate(-1615.949 -2260.507)"/>
                <path id="Path_3314" d="M1677 2408.378c-2.595-34.479 17.179-48.078 30.238-48.078 7.244 0 11.785 4.277 15.281 14.008" class="cls-18" data-name="Path 3314" transform="translate(-1616.105 -2320.066)"/>
                <path id="Path_3315" fill="#ffcf2d" stroke="#ffcf2d" stroke-miterlimit="10" d="M1178.962 2127.845c-3.88 3.844-10.9 19.606-2.211 22.73s18.861-27.727 18.861-27.727-7.363-4.217-16.65 4.997z" data-name="Path 3315" transform="translate(-1172.594 -2110.365)"/>
                <g id="Group_2092" data-name="Group 2092" transform="translate(36.851 80.945)">
                    <path id="Path_3316" d="M1520.082 2750.267l-3.1 16.807a17.787 17.787 0 0 1-34.983 0l-3.1-16.807a5.594 5.594 0 0 1 .528-2.366c2.487 2.5 10.572 4.324 20.147 4.324 9.443 0 17.419-1.778 20.038-4.2a5.614 5.614 0 0 1 .47 2.242z" class="cls-20" data-name="Path 3316" transform="translate(-1478.9 -2741.99)"/>
                    <path id="Path_3317" fill="#66b0f0" d="M1533.978 2702.988c0 2.379-8.277 4.3-18.489 4.3s-18.489-1.922-18.489-4.3a1.045 1.045 0 0 1 .156-.553c1.177-2.114 8.938-3.736 18.333-3.736 9.683 0 17.624 1.73 18.417 3.928a.963.963 0 0 1 .072.361z" data-name="Path 3317" transform="translate(-1494.825 -2698.699)"/>
                </g>
                <path id="Path_3318" d="M1277.166 2086.031a98.232 98.232 0 0 1-3.808 27.607h-7.016c-.024-41.771-15.257-75.613-34.035-75.613-4.877 0-9.514 2.282-13.707 6.391 12.35-14.452 17.48-18.417 24.531-18.417 16.843.001 34.035 26.876 34.035 60.032z" class="cls-22" data-name="Path 3318" transform="translate(-1213.073 -2026)"/>
                <path id="Path_3319" fill="none" stroke="#ffcf2d" stroke-miterlimit="10" d="M1284 2074.677c4.012-2.919 6.6-4.277 11.2-4.277 18.789 0 37.807 31.355 32.8 82.292" data-name="Path 3319" transform="translate(-1270.616 -2065.066)"/>
                <path id="Path_3320" d="M1421.4 2467.155s1.033-39.224-20.339-39.356c-5.658-.036-10.956 8.938-10.956 8.938s25.024-6.536 26.261 30.418z" class="cls-17" data-name="Path 3320" transform="translate(-1363.937 -2379.452)"/>
                <path id="Path_3321" d="M1452.387 2490.188c.3-11.052-2.487-37.722-24.087-36.293" class="cls-18" data-name="Path 3321" transform="translate(-1397.546 -2402.361)"/>
                <circle id="Ellipse_566" cx="1.982" cy="1.982" r="1.982" class="cls-22" data-name="Ellipse 566" transform="translate(24.074 16.038)"/>
                <circle id="Ellipse_567" cx="2.895" cy="2.895" r="2.895" class="cls-22" data-name="Ellipse 567" transform="translate(69.925 70.984)"/>
                <circle id="Ellipse_568" cx="5.466" cy="5.466" r="5.466" class="cls-20" data-name="Ellipse 568" transform="translate(62.545 9.911)"/>
            </g>
            <g id="Group_2527" data-name="Group 2527" transform="translate(968.486 3887.735)">
                <path id="Path_3322" d="M1492.468 2996.508l-4.841-24.111a2.3 2.3 0 0 0-4.229-.733c-6.679 11.113-24.82 11.185-31.607.108l-.12-.2a2.3 2.3 0 0 0-4.217.745l-4.854 24.183" class="cls-24" data-name="Path 3322" transform="translate(-1442.6 -2970.471)"/>
                <path id="Line_543" d="M0 0L0 16.567" class="cls-24" data-name="Line 543" transform="translate(24.94 9.578)"/>
            </g>
        </g>
    </g>
</svg>
