<svg xmlns="http://www.w3.org/2000/svg" width="25" height="13" viewBox="0 0 25 13">
    <path id="Icon_ionic-logo-vk" fill="#aaa4a7" d="M24.318 17.677c-.48-.406-.877-.649-1.033-1.04a.677.677 0 0 1-.056-.386c.022-.3.307-.7 2.212-2.988.793-.954 1.826-2.105 1.826-2.968 0-.558-.251-.695-1.162-.695h-4.133c-.363 0-.609.451-.76.832a20.021 20.021 0 0 1-1.2 2.222 8.171 8.171 0 0 1-2.234 2.658.559.559 0 0 1-.307.041.544.544 0 0 1-.346-.188c-.128-.142-.33-.391-.251-2.734.045-1.309.207-2.222-.095-2.78a1 1 0 0 0-.268-.279 6.663 6.663 0 0 0-2.681-.38 9.642 9.642 0 0 0-2.234.213 2.247 2.247 0 0 0-1.056.609c-.14.167.24.081.609.233a1.123 1.123 0 0 1 .626.472 5.384 5.384 0 0 1 .3 3.383 3.484 3.484 0 0 1-.369 1.294.536.536 0 0 1-.531.157c-.9-.249-1.6-1.319-2.3-2.572-.732-1.309-1.106-2.227-1.307-2.6A1.047 1.047 0 0 0 6.54 9.6H2.831a.532.532 0 0 0-.553.457c0 .558 1.039 2.181 1.664 3.348a25.352 25.352 0 0 0 4.6 6.1 9.028 9.028 0 0 0 5.848 2.481 14.69 14.69 0 0 0 1.86-.076.86.86 0 0 0 .318-.127c.4-.279.324-.812.352-1.228a2.155 2.155 0 0 1 .391-1.319.826.826 0 0 1 1.039-.208 3.384 3.384 0 0 1 .961.766 13.382 13.382 0 0 0 1.748 1.633 3.4 3.4 0 0 0 1 .441 4.408 4.408 0 0 0 1.413.117c.542-.02.95-.015 1.62-.015a4.8 4.8 0 0 0 1.849-.178.659.659 0 0 0 .335-.573c.002-.605-.676-1.609-2.958-3.542z" data-name="Icon ionic-logo-vk" transform="translate(-2.278 -8.993)"/>
</svg>
