<svg xmlns="http://www.w3.org/2000/svg" width="25" height="17" viewBox="0 0 25 17">
    <path id="Icon_awesome-youtube" fill="#aaa4a7" d="M25.528 7.16a3.091 3.091 0 0 0-2.21-2.151C21.368 4.5 13.55 4.5 13.55 4.5s-7.818 0-9.767.508A3.091 3.091 0 0 0 1.572 7.16a30.845 30.845 0 0 0-.522 5.857 30.845 30.845 0 0 0 .522 5.857 3.047 3.047 0 0 0 2.21 2.117c1.95.508 9.767.508 9.767.508s7.818 0 9.767-.508a3.047 3.047 0 0 0 2.21-2.117 30.845 30.845 0 0 0 .522-5.857 30.845 30.845 0 0 0-.522-5.857zm-14.535 9.452v-7.19l6.534 3.6-6.534 3.595z" data-name="Icon awesome-youtube" transform="translate(-1.05 -4.5)"/>
</svg>
