<svg xmlns="http://www.w3.org/2000/svg" width="25" height="20" viewBox="0 0 25 20">
    <path id="Icon_awesome-twitter" fill="#aaa4a7" d="M22.43 8.365c.016.219.016.438.016.656a14.363 14.363 0 0 1-14.578 14.36A14.64 14.64 0 0 1 0 21.115a10.759 10.759 0 0 0 1.237.062A10.361 10.361 0 0 0 7.6 19.021a5.124 5.124 0 0 1-4.791-3.5 6.558 6.558 0 0 0 .968.078 5.5 5.5 0 0 0 1.348-.172 5.067 5.067 0 0 1-4.109-4.953v-.062a5.22 5.22 0 0 0 2.316.641 5.024 5.024 0 0 1-2.284-4.2 4.952 4.952 0 0 1 .7-2.547A14.638 14.638 0 0 0 12.31 9.584a5.615 5.615 0 0 1-.127-1.156 5.083 5.083 0 0 1 5.124-5.047 5.148 5.148 0 0 1 3.743 1.594 10.182 10.182 0 0 0 3.25-1.219 5.048 5.048 0 0 1-2.25 2.781A10.4 10.4 0 0 0 25 5.756a10.925 10.925 0 0 1-2.57 2.609z" data-name="Icon awesome-twitter" transform="translate(0 -3.381)"/>
</svg>
