<svg xmlns="http://www.w3.org/2000/svg" id="Component_4_17" width="20" height="20" data-name="Component 4 – 17" viewBox="0 0 20 20">
    <path id="Rectangle_170" fill="none" d="M0 0H20V20H0z" data-name="Rectangle 170"/>
    <path id="Icon_feather-phone" fill="none" stroke="#ffcf2d" stroke-linecap="round" stroke-linejoin="round" d="M21.167 16.476v2.71a1.809 1.809 0 0 1-1.973 1.806 17.933 17.933 0 0 1-7.81-2.773 17.631 17.631 0 0 1-5.43-5.419 17.852 17.852 0 0 1-2.779-7.831A1.808 1.808 0 0 1 4.976 3h2.715A1.809 1.809 0 0 1 9.5 4.554a11.579 11.579 0 0 0 .634 2.538A1.8 1.8 0 0 1 9.728 9l-1.15 1.145a14.466 14.466 0 0 0 5.43 5.419l1.149-1.147a1.813 1.813 0 0 1 1.91-.406 11.639 11.639 0 0 0 2.543.632 1.808 1.808 0 0 1 1.557 1.834z" data-name="Icon feather-phone" transform="translate(-2.168 -2)"/>
</svg>
