<svg xmlns="http://www.w3.org/2000/svg" id="Component_4_16" width="20" height="20" data-name="Component 4 – 16" viewBox="0 0 20 20">
    <defs>
        <style>
            .cls-2{fill:#ffcf2d}
        </style>
    </defs>
    <path id="Rectangle_170" fill="none" d="M0 0H20V20H0z" data-name="Rectangle 170"/>
    <g id="gps_1_" data-name="gps (1)" transform="translate(4)">
        <path id="Path_4188" d="M106.125 107.562a3.558 3.558 0 1 1 2.517-1.041 3.548 3.548 0 0 1-2.517 1.041zm0-5.708a2.151 2.151 0 1 0 1.521.629 2.145 2.145 0 0 0-1.521-.629zm0 0" class="cls-2" data-name="Path 4188" transform="translate(-99.625 -97.852)"/>
        <path id="Path_4189" d="M7.007 20l-.424-.533C6.335 19.155.5 11.769.5 6.951A6.745 6.745 0 0 1 7 0a6.745 6.745 0 0 1 6.5 6.952c0 4.581-5.829 12.187-6.077 12.508zM7 1.173a5.607 5.607 0 0 0-5.4 5.778c0 1.791 1 4.382 2.887 7.495.98 1.615 1.967 2.983 2.51 3.707.543-.744 1.54-2.157 2.526-3.8C11.407 11.2 12.4 8.645 12.4 6.951A5.607 5.607 0 0 0 7 1.173zm0 0" class="cls-2" data-name="Path 4189" transform="translate(-.501 .001)"/>
    </g>
</svg>
