<svg xmlns="http://www.w3.org/2000/svg" width="270.484" height="604.698" viewBox="0 0 270.484 604.698">
    <defs>
        <style>
            .cls-1{fill:#d0f0e4}.cls-16,.cls-19,.cls-20,.cls-21,.cls-8{fill:none}.cls-20,.cls-21{stroke:#ffcf2d}.cls-16,.cls-17,.cls-19,.cls-20,.cls-21,.cls-8{stroke-miterlimit:10}.cls-5{fill:#ffcf2d}.cls-16,.cls-19{stroke:#fff}.cls-8{stroke:#9a3b82}.cls-17,.cls-19,.cls-20,.cls-8{stroke-linecap:round}.cls-6{fill:#e57281}.cls-7{fill:#9a3b82}.cls-12,.cls-17{fill:#fff}.cls-10{fill:#fe5244}.cls-11{opacity:.2}.cls-15{fill:#3fb1b5}.cls-17{stroke:#3fb1b5}
        </style>
    </defs>
    <g id="img-girl_with_a_book" transform="translate(.298)">
        <g id="Group_1534" data-name="Group 1534" transform="translate(.202)">
            <g id="Group_1533" data-name="Group 1533">
                <path id="Path_1199" d="M1362.079 1100.809H1092.1l90.222-399.209h89.641z" class="cls-1" data-name="Path 1199" transform="translate(-1092.1 -628.6)"/>
                <g id="Group_1532" stroke-miterlimit="10" stroke-width="2px" data-name="Group 1532" transform="translate(91)">
                    <path id="Line_123" fill="none" stroke="#ffcf2d" d="M0 28.271L0 0" data-name="Line 123" transform="translate(43.991)"/>
                    <circle id="Ellipse_113" cx="13.59" cy="13.59" r="13.59" fill="#ffcf2d" stroke="#fff" data-name="Ellipse 113" transform="translate(30.4 59.82)"/>
                    <path id="Path_1201" fill="none" stroke="#9a3b82" stroke-linecap="round" d="M2220.2 548.7h-88l1.174-5.417c3.861-17.84 21.863-30.779 42.836-30.779a47.762 47.762 0 0 1 27.826 8.69 36.956 36.956 0 0 1 14.991 22.07z" data-name="Path 1201" transform="translate(-2132.2 -476.43)"/>
                </g>
            </g>
        </g>
        <path id="Path_1289" d="M1103.587 2800.394l-270.186 29.8V2787.8h270.186z" class="cls-1" data-name="Path 1289" transform="translate(-833.4 -2250.821)"/>
        <g id="_x31__CHARACTER" transform="translate(.202 280.77)">
            <g id="HEAD_1_" transform="translate(37.193)">
                <g id="HAIR">
                    <path id="Path_1426" d="M1654.069 1721.552c0-1.526-.071-3-.188-4.39-1.432-.634-10.47-4.977-12.748-12.794 0 0-6.855 13.874-17.044 12.278a.087.087 0 0 1-.07-.023H1624l-2.465-1.268c-.047-.023-.07-.047-.117-.047a4.662 4.662 0 0 0-6.573 3.31 28.908 28.908 0 0 1-1.409-5.822c-1.807-13.663 5.728-25.1 18.241-25.1 11.41 0 22.373 10.729 24.11 22.068a19.454 19.454 0 0 1-1.718 11.788z" class="cls-5" data-name="Path 1426" transform="translate(-1549.771 -1687.7)"/>
                    <path id="Path_1427" d="M1410.218 1838.9c-1.1 6.48-25.283-2.559-30.659 8.264-3.5 7.066 1.9 15.588-13.287 16.316-18.1.845-25.448 10.752-22.514 33.712l49.441-26.223 13.8-12.3 6.01-18.476z" class="cls-5" data-name="Path 1427" transform="translate(-1343.13 -1803.404)"/>
                </g>
                <g id="NECK" transform="translate(63.871 36.811)">
                    <path id="Path_1428" d="M1646.587 1858.445v6.432l-15.283 9.249-16.1-11.151 6.01-18.476z" class="cls-6" data-name="Path 1428" transform="translate(-1615.2 -1844.5)"/>
                    <path id="Path_1429" d="M1652.6 1850.7l7.325 28.172 15.283-9.25v-6.432z" class="cls-7" data-name="Path 1429" transform="translate(-1643.82 -1849.244)"/>
                </g>
                <g id="HEAD" transform="translate(65.022 16.668)">
                    <path id="Path_1430" d="M1659.375 1776.025c0 10.494-6.738 19.016-15.048 19.016-6.808 0-12.841-5.7-14.813-13.546l-6.879-3.521a4.669 4.669 0 0 1-1.855-1.714 4.531 4.531 0 0 1-.681-2.418 4.644 4.644 0 0 1 6.761-4.132l2.559 1.291v-.024c10.189 1.573 17.044-12.278 17.044-12.278 2.277 7.818 11.315 12.137 12.748 12.795.117 1.432.164 2.935.164 4.531z" class="cls-6" data-name="Path 1430" transform="translate(-1620.1 -1758.7)"/>
                    <g id="Group_1262" data-name="Group 1262" transform="translate(4.296 13.687)">
                        <path id="Path_1431" d="M1759.765 1821.519s-3.78-1.573-6.1.775c-2.888 2.911-2.254 11.269-2.254 11.269" class="cls-8" data-name="Path 1431" transform="translate(-1724.833 -1820.063)"/>
                        <path id="Path_1432" d="M1709.121 1821.062a12.665 12.665 0 0 0-6.221 1.409" class="cls-8" data-name="Path 1432" transform="translate(-1687.758 -1820.1)"/>
                        <path id="Path_1433" d="M1641.287 1820.287a4.181 4.181 0 0 0-2.887-3.287" class="cls-8" data-name="Path 1433" transform="translate(-1638.4 -1817)"/>
                        <ellipse id="Ellipse_143" cx="1.831" cy="1.103" class="cls-7" data-name="Ellipse 143" rx="1.831" ry="1.103" transform="rotate(-74.81 13.972 -7.687)"/>
                        <ellipse id="Ellipse_144" cx="1.831" cy="1.103" class="cls-7" data-name="Ellipse 144" rx="1.831" ry="1.103" transform="rotate(-74.81 20.03 -14.974)"/>
                        <path id="Path_1434" d="M1729.635 1878.848s-4.061 1.08-5.235-2.348" class="cls-8" data-name="Path 1434" transform="translate(-1704.21 -1862.531)"/>
                    </g>
                </g>
            </g>
            <g id="BLOUSE" transform="translate(3.639 55.286)">
                <path id="Path_1435" fill="#fff" stroke="#fe5244" stroke-miterlimit="10" d="M1267.576 1975.8h91.44a31.7 31.7 0 0 1 28.993 18.875l17.278 35.543-155.107 75.1-49.981-21.41 27.209-79.631a42.581 42.581 0 0 1 40.168-28.477z" data-name="Path 1435" transform="translate(-1200.2 -1963.452)"/>
                <g id="Group_1282" data-name="Group 1282" transform="translate(88.669 11.574)">
                    <path id="Path_1436" d="M1599.474 1988.957l-7.583-4.484 10.517-11.973h.751l10.658 11.175-7.395 4.484 31.74 65.4-60.263 29.462z" class="cls-10" data-name="Path 1436" transform="translate(-1577.9 -1972.5)"/>
                    <g id="Group_1281" class="cls-11" data-name="Group 1281" transform="translate(2.653 2.723)">
                        <g id="Group_1269" data-name="Group 1269" transform="translate(5.4)">
                            <g id="Group_1263" data-name="Group 1263" transform="translate(0 68.597)">
                                <path id="Path_1437" d="M1613.139 2276.3v26.622h-.939v-22.537z" class="cls-12" data-name="Path 1437" transform="translate(-1612.2 -2276.3)"/>
                            </g>
                            <g id="Group_1264" data-name="Group 1264" transform="translate(9.883 3.662)">
                                <path id="Path_1438" d="M1655.239 2092.4v69.771h-.939v-65.686l.587-2.535.211-.939z" class="cls-12" data-name="Path 1438" transform="translate(-1654.3 -2070.637)"/>
                                <path id="Path_1439" d="M1655.239 1999.7v8.475l-.939-.54v-6.855z" class="cls-12" data-name="Path 1439" transform="translate(-1654.3 -1999.7)"/>
                            </g>
                            <g id="Group_1265" data-name="Group 1265" transform="translate(19.79)">
                                <path id="Path_1440" d="M1697.439 1985.086v92.754l-.939.446V1984.1z" class="cls-12" data-name="Path 1440" transform="translate(-1696.5 -1984.1)"/>
                            </g>
                            <g id="Group_1266" data-name="Group 1266" transform="translate(29.697 31.951)">
                                <path id="Path_1441" d="M1739.639 2122.125v55.005l-.939.469v-57.4z" class="cls-12" data-name="Path 1441" transform="translate(-1738.7 -2120.2)"/>
                            </g>
                            <g id="Group_1267" data-name="Group 1267" transform="translate(39.604 52.328)">
                                <path id="Path_1442" d="M1781.839 2208.949v29.767l-.939.47V2207z" class="cls-12" data-name="Path 1442" transform="translate(-1780.9 -2207)"/>
                            </g>
                            <g id="Group_1268" data-name="Group 1268" transform="translate(49.488 72.752)">
                                <path id="Path_1443" d="M1823.939 2295.925v4.531l-.939.446V2294z" class="cls-12" data-name="Path 1443" transform="translate(-1822.999 -2294)"/>
                            </g>
                        </g>
                        <g id="Group_1280" data-name="Group 1280" transform="translate(0 6.245)">
                            <g id="Group_1270" data-name="Group 1270" transform="translate(0 89.092)">
                                <path id="Path_1444" d="M1612.066 2390.2l-1.925.939H1589.2l.211-.939z" class="cls-12" data-name="Path 1444" transform="translate(-1589.2 -2390.2)"/>
                            </g>
                            <g id="Group_1271" data-name="Group 1271" transform="translate(2.254 79.185)">
                                <path id="Path_1445" d="M1639.648 2348l-1.925.939H1598.8l.235-.939z" class="cls-12" data-name="Path 1445" transform="translate(-1598.8 -2348)"/>
                            </g>
                            <g id="Group_1272" data-name="Group 1272" transform="translate(4.531 69.278)">
                                <path id="Path_1446" d="M1660.664 2306.739H1608.5l.211-.939h51.507z" class="cls-12" data-name="Path 1446" transform="translate(-1608.5 -2305.8)"/>
                            </g>
                            <g id="Group_1273" data-name="Group 1273" transform="translate(6.808 59.395)">
                                <path id="Path_1447" d="M1663.3 2264.639h-45.1l.212-.939h44.417z" class="cls-12" data-name="Path 1447" transform="translate(-1618.2 -2263.7)"/>
                            </g>
                            <g id="Group_1274" data-name="Group 1274" transform="translate(9.062 49.488)">
                                <path id="Path_1448" d="M1665.831 2222.439H1627.8l.235-.94h37.35z" class="cls-12" data-name="Path 1448" transform="translate(-1627.8 -2221.499)"/>
                            </g>
                            <g id="Group_1275" data-name="Group 1275" transform="translate(11.339 39.581)">
                                <path id="Path_1449" d="M1668.441 2180.24H1637.5l.212-.94H1668z" class="cls-12" data-name="Path 1449" transform="translate(-1637.5 -2179.3)"/>
                            </g>
                            <g id="Group_1276" data-name="Group 1276" transform="translate(13.616 29.697)">
                                <path id="Path_1450" d="M1671.075 2138.139H1647.2l.211-.939h23.194z" class="cls-12" data-name="Path 1450" transform="translate(-1647.2 -2137.199)"/>
                            </g>
                            <g id="Group_1277" data-name="Group 1277" transform="translate(15.87 19.79)">
                                <path id="Path_1451" d="M1673.609 2095.939H1656.8l.211-.939h16.152z" class="cls-12" data-name="Path 1451" transform="translate(-1656.8 -2095)"/>
                            </g>
                            <g id="Group_1278" data-name="Group 1278" transform="translate(18.147 9.883)">
                                <path id="Path_1452" d="M1676.243 2053.739h-9.743l.211-.939h9.062z" class="cls-12" data-name="Path 1452" transform="translate(-1666.5 -2052.8)"/>
                            </g>
                            <g id="Group_1279" data-name="Group 1279" transform="translate(13.147)">
                                <path id="Path_1453" d="M1664.1 2011.639h-18.9l.822-.939h17.185z" class="cls-12" data-name="Path 1453" transform="translate(-1645.2 -2010.7)"/>
                            </g>
                        </g>
                    </g>
                </g>
                <path id="Line_146" fill="none" stroke="#fe5244" stroke-miterlimit="10" d="M7.371 0L0 24.885" data-name="Line 146" transform="translate(56.742 63.292)"/>
                <path id="Path_1454" fill="#fff" stroke="#fe5244" stroke-linejoin="round" stroke-miterlimit="10" d="M1614.5 1935.5l-17.4 9.954-10.4-10.681h-.751l-10.282 11.5-19.267-10.773 14.039-12.3 15.87 11.151 15.283-9.25z" data-name="Path 1454" transform="translate(-1472.778 -1923.2)"/>
            </g>
            <g id="BOOK" transform="translate(109.446 89.64)">
                <path id="Path_1455" d="M1779.924 2099.8l-18.217 57.892H1650.9l18.218-57.892z" class="cls-15" data-name="Path 1455" transform="translate(-1650.9 -2092.695)"/>
                <path id="Line_147" d="M0 57.892L18.217 0" class="cls-16" data-name="Line 147" transform="translate(58.925 7.105)"/>
                <path id="Path_1456" d="M1737.4 2076.64s13.874-8.24 33.97-6.973c20.1 1.245 22.913 6.973 22.913 6.973z" class="cls-17" data-name="Path 1456" transform="translate(-1717.093 -2069.535)"/>
                <path id="Path_1457" d="M2027.52 2083.066s-26.152-11.55-47.821 0z" class="cls-17" data-name="Path 1457" transform="translate(-1902.51 -2075.961)"/>
            </g>
            <g id="LEGS" transform="translate(51.389 127.365)">
                <g id="RIGHT" transform="translate(71.881 33.749)">
                    <path id="Path_1458" d="M1774.152 2428.032l-53.854 42.539a14.253 14.253 0 0 0-1.854 20.635l37 41.975s3.521-2.605 2.347-13.076a79.9 79.9 0 0 1 2.348-28.03l79.7-56.836a47.545 47.545 0 0 0 19.955-38.055c.305-20.565-24.626-30.989-39.064-16.363z" class="cls-6" data-name="Path 1458" transform="translate(-1713.675 -2373.987)"/>
                    <path id="Path_1459" fill="#fff" stroke="#9a3b82" stroke-linecap="round" stroke-miterlimit="10" d="M1760.062 2668.219a80.555 80.555 0 0 0-2.348 28.031c1.174 10.494-2.347 13.1-2.347 13.1l-37-41.975a14.271 14.271 0 0 1 1.855-20.635l17.279-13.663c.516-.375 1.033-.775 1.549-1.174l21.974-17.372 13.052-10.33s-.728 17.161 7.348 48.783z" data-name="Path 1459" transform="translate(-1713.623 -2550.155)"/>
                    <g id="Group_1284" data-name="Group 1284" transform="translate(0 86.7)">
                        <path id="Path_1460" d="M1754.747 2804.1a25.217 25.217 0 0 1-.375 9.062 8.672 8.672 0 0 1-.423 1.315 6.825 6.825 0 0 1-2.113 3.216l-38.36-43.5a14.786 14.786 0 0 1-.07-19.462 14.365 14.365 0 0 1 2.019-1.925l1.245-.986 10.8-8.522c-.7 4.7 2.324 12.56 8.146 19.978 7.371 9.39 17.161 14.391 21.434 11.809-.683 2.49-3.805 15.615-2.303 29.015z" class="cls-5" data-name="Path 1460" transform="translate(-1709.787 -2743.3)"/>
                        <g id="Group_1283" data-name="Group 1283" transform="translate(2.265 8.498)">
                            <path id="Path_1461" d="M1761.778 2840.866a8.7 8.7 0 0 1-.422 1.315l-38.078-43.2a15.268 15.268 0 0 1-3.779-11.55 15.724 15.724 0 0 1 1.314-5.024 14.342 14.342 0 0 1 2.019-1.925l1.244-.986a13.922 13.922 0 0 0-3.4 8.029 14.119 14.119 0 0 0 3.5 10.682z" class="cls-12" data-name="Path 1461" transform="translate(-1719.436 -2779.5)"/>
                        </g>
                        <path id="Path_1462" d="M1865.972 2903.148s-10.33-4.108-11.715 0c-1.361 4.108 10.94 6.714 10.94 6.714z" class="cls-12" data-name="Path 1462" transform="translate(-1820.26 -2864.225)"/>
                    </g>
                </g>
                <g id="LEFT">
                    <path id="Path_1463" d="M1858.107 2262.35v128.626c-14.954 15.189-34.815 7.019-34.815 7.019-17.537-50.474-16.363-78.5-16.363-78.5l-13.053 10.306c-33.383-20.847-36.106-68.808-36.177-69.959l54.394-26.316a32.039 32.039 0 0 1 46.014 28.824z" class="cls-6" data-name="Path 1463" transform="translate(-1674.571 -2230.265)"/>
                    <path id="Path_1464" d="M1972.537 2233.461a32.043 32.043 0 0 1 45.99 28.829v128.625c-14.954 15.189-34.815 7.02-34.815 7.02-17.513-50.474-16.363-78.528-16.363-78.528" class="cls-8" data-name="Path 1464" transform="translate(-1834.991 -2230.228)"/>
                    <g id="SKIRT" transform="translate(0 29.526)">
                        <path id="Path_1465" d="M1522.906 2425.982l-21.974 17.373c-39.393 31.153-97.332 3.1-97.332-47.117l83.129-40.238v.023c.071 1.177 2.817 49.136 36.177 69.959z" class="cls-10" data-name="Path 1465" transform="translate(-1403.6 -2356)"/>
                        <g id="Group_1308" class="cls-11" data-name="Group 1308" transform="translate(.423 1.69)">
                            <g id="Group_1296" data-name="Group 1296" transform="translate(9.015)">
                                <g id="Group_1285" data-name="Group 1285" transform="translate(0 33.547)">
                                    <path id="Path_1466" d="M1444.739 2506.1v38.994c-.329-.469-.634-.938-.939-1.408v-37.14z" class="cls-12" data-name="Path 1466" transform="translate(-1443.8 -2506.1)"/>
                                </g>
                                <g id="Group_1286" data-name="Group 1286" transform="translate(9.907 28.758)">
                                    <path id="Path_1467" d="M1486.939 2485.7v54.864c-.305-.282-.634-.563-.939-.845v-53.573z" class="cls-12" data-name="Path 1467" transform="translate(-1486 -2485.699)"/>
                                </g>
                                <g id="Group_1287" data-name="Group 1287" transform="translate(19.79 23.969)">
                                    <path id="Path_1468" d="M1529.039 2465.3v66.7c-.305-.188-.634-.352-.939-.54v-65.709z" class="cls-12" data-name="Path 1468" transform="translate(-1528.1 -2465.3)"/>
                                </g>
                                <g id="Group_1288" data-name="Group 1288" transform="translate(29.697 19.18)">
                                    <path id="Path_1469" d="M1571.239 2444.9v76.039c-.3-.118-.634-.211-.939-.329v-75.24z" class="cls-12" data-name="Path 1469" transform="translate(-1570.3 -2444.9)"/>
                                </g>
                                <g id="Group_1289" data-name="Group 1289" transform="translate(39.604 14.391)">
                                    <path id="Path_1470" d="M1613.439 2424.5v83.457c-.305-.047-.634-.117-.939-.164v-82.823z" class="cls-12" data-name="Path 1470" transform="translate(-1612.5 -2424.5)"/>
                                </g>
                                <g id="Group_1290" data-name="Group 1290" transform="translate(49.488 9.578)">
                                    <path id="Path_1471" d="M1655.539 2404v89.162c-.305 0-.634 0-.939-.023v-88.669z" class="cls-12" data-name="Path 1471" transform="translate(-1654.6 -2404)"/>
                                </g>
                                <g id="Group_1291" data-name="Group 1291" transform="translate(59.395 4.789)">
                                    <path id="Path_1472" d="M1697.739 2383.6v93.2c-.305.047-.634.094-.939.141v-92.871z" class="cls-12" data-name="Path 1472" transform="translate(-1696.8 -2383.6)"/>
                                </g>
                                <g id="Group_1292" data-name="Group 1292" transform="translate(69.301)">
                                    <path id="Path_1473" d="M1739.939 2363.2v95.478c-.305.117-.634.211-.939.329v-95.337z" class="cls-12" data-name="Path 1473" transform="translate(-1739 -2363.2)"/>
                                </g>
                                <g id="Group_1293" data-name="Group 1293" transform="translate(79.185 25.636)">
                                    <path id="Path_1474" d="M1782.039 2475.147v62.564c-.305.188-.634.352-.939.516V2472.4a2.738 2.738 0 0 0 .165.469c.094.305.211.634.305.939.164.446.33.892.469 1.339z" class="cls-12" data-name="Path 1474" transform="translate(-1781.099 -2472.4)"/>
                                </g>
                                <g id="Group_1294" data-name="Group 1294" transform="translate(89.092 47.117)">
                                    <path id="Path_1475" d="M1824.239 2565.355v35.425l-.939.751V2563.9c.3.47.61.962.939 1.455z" class="cls-12" data-name="Path 1475" transform="translate(-1823.3 -2563.9)"/>
                                </g>
                                <g id="Group_1295" data-name="Group 1295" transform="translate(98.999 59.606)">
                                    <path id="Path_1476" d="M1866.439 2618.039v16.01h-.493l-.446.352v-17.3c.3.328.61.633.939.938z" class="cls-12" data-name="Path 1476" transform="translate(-1865.5 -2617.1)"/>
                                </g>
                            </g>
                            <g id="Group_1307" data-name="Group 1307" transform="translate(0 6.315)">
                                <g id="Group_1297" data-name="Group 1297" transform="translate(40.168 89.092)">
                                    <path id="Path_1477" d="M1615.752 2769.6c-.07.024-.118.047-.188.071-.305.117-.634.211-.939.328-.587.188-1.174.376-1.784.563h-33.383c-.986-.281-1.972-.61-2.958-.939h39.252z" class="cls-12" data-name="Path 1477" transform="translate(-1576.5 -2769.6)"/>
                                </g>
                                <g id="Group_1298" data-name="Group 1298" transform="translate(22.115 79.185)">
                                    <path id="Path_1478" d="M1574.606 2727.4l-.211.165-.986.775h-72.589c-.422-.306-.821-.611-1.221-.939z" class="cls-12" data-name="Path 1478" transform="translate(-1499.6 -2727.4)"/>
                                </g>
                                <g id="Group_1299" data-name="Group 1299" transform="translate(12.208 69.302)">
                                    <path id="Path_1479" d="M1554.826 2685.3l-.7.54v.4h-95.97c-.259-.305-.517-.633-.751-.939z" class="cls-12" data-name="Path 1479" transform="translate(-1457.4 -2685.3)"/>
                                </g>
                                <g id="Group_1300" data-name="Group 1300" transform="translate(5.916 59.395)">
                                    <path id="Path_1480" d="M1541.078 2644.039h-109.985c-.164-.305-.329-.634-.493-.939h109.164c.422.328.868.633 1.314.939z" class="cls-12" data-name="Path 1480" transform="translate(-1430.599 -2643.1)"/>
                                </g>
                                <g id="Group_1301" data-name="Group 1301" transform="translate(2.019 49.488)">
                                    <path id="Path_1481" d="M1517.295 2601.839h-103.013c-.094-.3-.188-.634-.282-.939h102.5a9.945 9.945 0 0 0 .795.939z" class="cls-12" data-name="Path 1481" transform="translate(-1414 -2600.899)"/>
                                </g>
                                <g id="Group_1302" data-name="Group 1302" transform="translate(0 39.604)">
                                    <path id="Path_1482" d="M1503.342 2559.739h-97.825c-.047-.305-.07-.634-.117-.939h97.356c.211.3.398.61.586.939z" class="cls-12" data-name="Path 1482" transform="translate(-1405.4 -2558.8)"/>
                                </g>
                                <g id="Group_1303" data-name="Group 1303" transform="translate(2.935 29.697)">
                                    <path id="Path_1483" d="M1507.6 2517.539h-89.7l1.949-.939h87.331a8.289 8.289 0 0 0 .42.939z" class="cls-12" data-name="Path 1483" transform="translate(-1417.9 -2516.6)"/>
                                </g>
                                <g id="Group_1304" data-name="Group 1304" transform="translate(23.382 19.79)">
                                    <path id="Path_1484" d="M1570.31 2475.339H1505l1.949-.939h63.057a6.287 6.287 0 0 0 .304.939z" class="cls-12" data-name="Path 1484" transform="translate(-1505 -2474.4)"/>
                                </g>
                                <g id="Group_1305" data-name="Group 1305" transform="translate(43.806 9.907)">
                                    <path id="Path_1485" d="M1633.975 2433.239H1592l1.948-.939h39.792c.094.3.16.61.235.939z" class="cls-12" data-name="Path 1485" transform="translate(-1592 -2432.299)"/>
                                </g>
                                <g id="Group_1306" data-name="Group 1306" transform="translate(64.254)">
                                    <path id="Path_1486" d="M1698.609 2391.039H1679.1l1.949-.939h17.419c.047.3.094.61.141.939z" class="cls-12" data-name="Path 1486" transform="translate(-1679.1 -2390.1)"/>
                                </g>
                            </g>
                        </g>
                        <path id="Path_1487" d="M1757.7 2356.1c.07 1.174 2.794 49.136 36.177 69.982" class="cls-16" data-name="Path 1487" transform="translate(-1674.571 -2356.077)"/>
                    </g>
                    <path id="Path_1488" d="M2026.459 2719v45.966c-14.954 15.188-34.815 7.019-34.815 7.019a327.479 327.479 0 0 1-13.945-52.962h48.76z" class="cls-12" data-name="Path 1488" transform="translate(-1842.923 -2604.256)"/>
                    <path id="Path_1489" d="M1991.544 2771.962A327.47 327.47 0 0 1 1977.6 2719h48.76v45.966" class="cls-8" data-name="Path 1489" transform="translate(-1842.847 -2604.256)"/>
                    <g id="Group_1310" data-name="Group 1310" transform="translate(143.957 159.326)">
                        <path id="Path_1490" d="M2091.437 2943.927h-69.372a5.244 5.244 0 0 1-5.188-6.081l.117-.7.423-2.536 3.005-18.4s21.152 8.521 36.74-7.3c0 0 4.883 12.583 25.26 21.832a14.767 14.767 0 0 1 8.1 8.17c.165.4.282.8.4 1.174a12.234 12.234 0 0 1 .515 3.841z" class="cls-5" data-name="Path 1490" transform="translate(-2016.807 -2908.9)"/>
                        <g id="Group_1309" data-name="Group 1309" transform="translate(.209 25.683)">
                            <path id="Path_1491" d="M2091.6 3023.769h-68.855a5.783 5.783 0 0 1-4.437-2.065 5.325 5.325 0 0 1-.61-.869l.423-2.535a4.537 4.537 0 0 0 1.1 2.653 4.7 4.7 0 0 0 3.545 1.643h68.457c.145.399.286.798.377 1.173z" class="cls-12" data-name="Path 1491" transform="translate(-2017.7 -3018.3)"/>
                        </g>
                        <path id="Path_1492" d="M2168.025 2940.3c-7.7 5.493-19.555 3.92-20.354 1.549-.822-2.348 11.48-4.062 13.1-8.945a45.555 45.555 0 0 0 7.254 7.396z" class="cls-12" data-name="Path 1492" transform="translate(-2116.92 -2927.265)"/>
                    </g>
                    <path id="Path_1493" d="M1967.4 2468.1c0-27.584 7.278-43.6 7.278-43.6" class="cls-8" data-name="Path 1493" transform="translate(-1835.042 -2378.893)"/>
                </g>
            </g>
            <g id="HAND" transform="translate(0 125.745)">
                <path id="Path_1494" d="M1301.869 2227.691l-96.346 22.654a27 27 0 0 0-20.823 26.293 27.014 27.014 0 0 0 38.806 24.3l93.224-45.262a7.03 7.03 0 0 0 3.5-3.8l10.33-26.5a1.5 1.5 0 0 0-1.62-2.019l-1.643.235a9.616 9.616 0 0 0-6.479 3.967l-4.2 6.292a4.152 4.152 0 0 1-3.451 1.831h-9.837a2.956 2.956 0 0 1-2.817-3.85z" class="cls-6" data-name="Path 1494" transform="translate(-1184.7 -2223.332)"/>
                <g id="Group_1311" data-name="Group 1311" transform="translate(0 .235)">
                    <path id="Path_1495" d="M1300.93 2228.69l-95.407 22.655a27 27 0 0 0-20.823 26.293 27.014 27.014 0 0 0 38.806 24.3l93.224-45.262a7.027 7.027 0 0 0 3.5-3.8l10.33-26.5a1.5 1.5 0 0 0-1.62-2.02l-1.643.235a9.614 9.614 0 0 0-6.479 3.968l-4.2 6.291a4.152 4.152 0 0 1-3.451 1.832h-10.775a2.957 2.957 0 0 1-2.817-3.851z" class="cls-16" data-name="Path 1495" transform="translate(-1184.7 -2224.331)"/>
                    <path id="Path_1496" d="M1696 2297.88h14.391a6.473 6.473 0 0 0 5.681-3.38" class="cls-19" data-name="Path 1496" transform="translate(-1575.967 -2278.027)"/>
                    <path id="Path_1497" d="M1682 2333.88h14.391a6.472 6.472 0 0 0 5.681-3.38" class="cls-19" data-name="Path 1497" transform="translate(-1565.253 -2305.575)"/>
                </g>
            </g>
        </g>
        <g id="Group_1545" data-name="Group 1545" transform="translate(.202 546.761)">
            <g id="Group_1188" data-name="Group 1188" transform="translate(12.107)">
                <path id="Path_1309" d="M908.88 2781.565s-13.467-12.161-13.2-20.887c.3-9.983 9.849-5.159 10.352-8.76.519-3.584-10.084-28.107 4.673-27.923s7.889 23.7 11.893 25.879c4 2.161 10.636-.419 8.844 9.1-1.792 9.531-16.7 22.479-16.7 22.479z" class="cls-15" data-name="Path 1309" transform="translate(-858.826 -2723.994)"/>
                <path id="Path_1310" d="M685.3 2783.184c-8.727 0-15.444-15.946-1.993-20.167s14.924 8.492 11.993 8.978-4.389-24.422 19.815-21.039c26.415 3.685 10.268 32.228 10.268 32.228a64.264 64.264 0 0 0 1.256-56.884" class="cls-20" data-name="Path 1310" transform="translate(-675.677 -2725.914)"/>
                <g id="Group_1186" data-name="Group 1186" transform="translate(67.993 35.981)">
                    <path id="Path_1311" d="M1081.6 2960.092s13.668-28.609 26.784-19.5-17.672 19.5-17.672 19.5" class="cls-20" data-name="Path 1311" transform="translate(-1081.6 -2938.803)"/>
                    <path id="Path_1312" d="M1111 2969.662s13.283-17.755 22.043-19.062" class="cls-20" data-name="Path 1312" transform="translate(-1106.075 -2948.624)"/>
                </g>
                <g id="Group_1187" data-name="Group 1187" transform="translate(56.151 15.258)">
                    <path id="Path_1313" d="M1010.9 2932.449s7.186-16.733 13.551-26.65" class="cls-20" data-name="Path 1313" transform="translate(-1010.9 -2890.605)"/>
                    <path id="Path_1314" d="M1063.688 2941.447c-1.407.971-7.688 1.558-7.688 1.558s2.8-5.662 4.188-6.633a3.083 3.083 0 1 1 3.5 5.075z" class="cls-21" data-name="Path 1314" transform="translate(-1048.446 -2915.598)"/>
                    <path id="Path_1315" d="M1096.888 2873.247c-1.407.972-7.688 1.558-7.688 1.558s2.8-5.662 4.188-6.633a3.083 3.083 0 1 1 3.5 5.075z" class="cls-21" data-name="Path 1315" transform="translate(-1076.084 -2858.822)"/>
                    <path id="Path_1316" d="M1116.949 2819.811c-.9 1.44-6.449 4.456-6.449 4.456s.318-6.3 1.24-7.739a3.079 3.079 0 1 1 5.209 3.283z" class="cls-21" data-name="Path 1316" transform="translate(-1093.817 -2815.084)"/>
                    <path id="Path_1317" d="M1032.5 2918.448c-.017 1.708 3.032 7.236 3.032 7.236s3.115-5.494 3.132-7.186a3.082 3.082 0 0 0-6.164-.05z" class="cls-21" data-name="Path 1317" transform="translate(-1028.881 -2898.596)"/>
                    <path id="Path_1318" d="M1069.7 2851.049c-.017 1.708 3.032 7.236 3.032 7.236s3.115-5.494 3.132-7.186a3.082 3.082 0 0 0-6.164-.05z" class="cls-21" data-name="Path 1318" transform="translate(-1059.85 -2842.487)"/>
                </g>
            </g>
            <path id="Line_139" fill="none" stroke="#66b0f0" stroke-miterlimit="10" d="M0 0L269.984 0" data-name="Line 139" transform="translate(0 57.304)"/>
        </g>
    </g>
</svg>
