<svg xmlns="http://www.w3.org/2000/svg" width="267.01" height="395.619" viewBox="0 0 267.01 395.619">
    <defs>
        <style>
            .cls-1{fill:#66b0f0}.cls-2{fill:#9a3b82}.cls-3,.cls-9{fill:#fff}.cls-3,.cls-7,.cls-8{stroke:#ffcf2d}.cls-3,.cls-4,.cls-7,.cls-8,.cls-9{stroke-miterlimit:10}.cls-4,.cls-7,.cls-8{fill:none}.cls-4,.cls-9{stroke:#9a3b82}.cls-4,.cls-8,.cls-9{stroke-linecap:round}.cls-5{fill:#fe5244}.cls-6{fill:#ffcf2d}
        </style>
    </defs>
    <g id="ing-book_rack" transform="translate(.5 .619)">
        <g id="BOOKSHELF">
            <g id="Group_1164" data-name="Group 1164" transform="translate(0 225.731)">
                <path id="Rectangle_60" d="M0 0H8.581V54.178H0z" class="cls-1" data-name="Rectangle 60" transform="translate(15.563 9.072)"/>
                <path id="Path_1202" d="M3705.157 2307.551h-48.852a2.915 2.915 0 0 1-2.909-3.272l6.8-57.4a2.942 2.942 0 0 1 2.909-2.581h48.852a2.915 2.915 0 0 1 2.909 3.272l-6.8 57.4a2.943 2.943 0 0 1-2.909 2.581z" class="cls-2" data-name="Path 1202" transform="translate(-3525.186 -2244.3)"/>
                <path id="Path_1203" d="M3600.385 2368.506h-38.579a3.962 3.962 0 0 1-3.927-4.418l4.945-41.8a3.966 3.966 0 0 1 3.927-3.491h39.506z" class="cls-3" data-name="Path 1203" transform="translate(-3447.031 -2305.255)"/>
                <path id="Path_1204" d="M3632.122 2368.506h-36.816a3.962 3.962 0 0 1-3.927-4.418l4.945-41.8a3.966 3.966 0 0 1 3.927-3.491h37.289a1.979 1.979 0 0 1 1.964 2.218l-5.418 45.725a1.97 1.97 0 0 1-1.964 1.766z" class="cls-3" data-name="Path 1204" transform="translate(-3474.441 -2305.255)"/>
                <path id="Rectangle_61" d="M0 0H14.89V46.033H0z" class="cls-4" data-name="Rectangle 61" transform="translate(24.689 17.217)"/>
                <path id="Rectangle_62" d="M0 0H20.962V46.033H0z" class="cls-4" data-name="Rectangle 62" transform="translate(34.398 17.217)"/>
                <path id="Path_1205" d="M3269.28 2362.287h-5.8l-21.58-51.087h5.8z" class="cls-4" data-name="Path 1205" transform="translate(-3188.521 -2299.037)"/>
                <path id="Path_1206" d="M3321.08 2397.224h-10.8l-18.58-43.324h10.8z" class="cls-4" data-name="Path 1206" transform="translate(-3229.268 -2333.974)"/>
                <path id="Rectangle_63" d="M0 0H15.017V46.033H0z" class="cls-4" data-name="Rectangle 63" transform="translate(0 17.217)"/>
            </g>
            <g id="Group_1167" data-name="Group 1167" transform="translate(0 157.239)">
                <g id="Group_1165" data-name="Group 1165" transform="translate(0 25.344)">
                    <path id="Rectangle_64" d="M0 0H69.85V8.981H0z" class="cls-4" data-name="Rectangle 64" transform="translate(0 25.144)"/>
                    <path id="Rectangle_65" d="M0 0H88.485V7.236H0z" class="cls-5" data-name="Rectangle 65" transform="translate(0 18.272)"/>
                    <path id="Rectangle_66" d="M0 0H59.723V10.254H0z" class="cls-6" data-name="Rectangle 66" transform="translate(0 7.836)"/>
                    <path id="Rectangle_67" d="M0 0H69.85V7.654H0z" class="cls-4" data-name="Rectangle 67"/>
                </g>
                <g id="Group_1166" data-name="Group 1166" transform="translate(105.484)">
                    <path id="Path_1207" d="M3613.385 1872.363l-.055.309-8.254 54H3528.5l8.254-54 .109-.763c1.309-2.654 9.308-4.709 19-4.709 10.6 0 19.181 2.454 19.181 5.472 0-3.018 8.581-5.472 19.18-5.472 10.234.018 18.576 2.291 19.161 5.163z" class="cls-3" data-name="Path 1207" transform="translate(-3528.5 -1867.2)"/>
                    <path id="Line_124" d="M0 53.997L8.181 0" class="cls-7" data-name="Line 124" transform="translate(38.379 5.491)"/>
                    <path id="Path_1208" d="M3566.961 2169.772c0-3.018-8.581-5.472-19.181-5.472s-19.18 2.454-19.18 5.472z" class="cls-6" data-name="Path 1208" transform="translate(-3528.582 -2110.285)"/>
                    <path id="Path_1209" d="M3777.961 2169.772c0-3.018-8.582-5.472-19.181-5.472s-19.181 2.454-19.181 5.472z" class="cls-6" data-name="Path 1209" transform="translate(-3701.22 -2110.285)"/>
                    <path id="Path_1210" d="M3741.2 1938.06c-.109-3.018 8.381-5.763 18.98-6.145 6.618-.236 13.145.691 16.581 2.018l8.181-51.433" class="cls-8" data-name="Path 1210" transform="translate(-3702.525 -1879.719)"/>
                </g>
            </g>
            <g id="Group_1168" data-name="Group 1168" transform="translate(.236 88.292)">
                <path id="Path_1211" d="M3652.359 1715.335H3583.6v-15.308a2.723 2.723 0 0 1 2.727-2.727h63.323a2.723 2.723 0 0 1 2.727 2.727v15.308z" class="cls-9" data-name="Path 1211" transform="translate(-3468.334 -1659.175)"/>
                <path id="Path_1212" d="M3717.905 1651h-59.251a1.649 1.649 0 0 1-1.655-1.654v-6.09a1.649 1.649 0 0 1 1.655-1.654h59.251a1.649 1.649 0 0 1 1.654 1.654v6.09a1.66 1.66 0 0 1-1.654 1.654z" class="cls-6" data-name="Path 1212" transform="translate(-3528.389 -1613.602)"/>
                <path id="Rectangle_68" d="M0 0H70.286V5.709H0z" class="cls-5" data-name="Rectangle 68" transform="translate(121.538 22.29)"/>
                <path id="Path_1213" d="M3750.523 1578.045h-53.651a1.276 1.276 0 0 1-1.272-1.273v-4.6a1.276 1.276 0 0 1 1.272-1.273h53.651a1.276 1.276 0 0 1 1.273 1.273v4.6a1.276 1.276 0 0 1-1.273 1.273z" class="cls-9" data-name="Path 1213" transform="translate(-3559.972 -1555.755)"/>
                <path id="Rectangle_69" d="M0 0H20.635V56.16H0z" class="cls-4" data-name="Rectangle 69" transform="translate(22.326)"/>
                <path id="Rectangle_70" d="M0 0H8.327V56.16H0z" class="cls-9" data-name="Rectangle 70" transform="translate(13.999)"/>
                <path id="Rectangle_71" d="M0 0H13.999V56.16H0z" class="cls-9" data-name="Rectangle 71"/>
                <path id="Rectangle_72" d="M0 0H18.09V46.033H0z" class="cls-4" data-name="Rectangle 72" transform="translate(45.688 10.145)"/>
                <path id="Path_1214" d="M3170.3 1589.251h-7.126a1.276 1.276 0 0 1-1.273-1.273v-43.506a1.276 1.276 0 0 1 1.273-1.273h7.126a1.276 1.276 0 0 1 1.273 1.273v43.506a1.288 1.288 0 0 1-1.273 1.273z" class="cls-9" data-name="Path 1214" transform="translate(-3123.303 -1533.092)"/>
                <path id="Path_1215" d="M3256.3 1543.4v25.235l-9.8-25.235z" class="cls-2" data-name="Path 1215" transform="translate(-3192.521 -1533.255)"/>
                <path id="Path_1216" d="M3308.986 1564.788h-28.943a1.543 1.543 0 0 1-1.437-.982l-18.8-48.4a1.541 1.541 0 0 1 1.437-2.109h28.943a1.543 1.543 0 0 1 1.437.982l18.8 48.4a1.541 1.541 0 0 1-1.437 2.109z" class="cls-3" data-name="Path 1216" transform="translate(-3203.32 -1508.628)"/>
                <path id="Path_1217" d="M3334.987 1564.788h-28.944a1.543 1.543 0 0 1-1.436-.982l-18.8-48.4a1.541 1.541 0 0 1 1.436-2.109h28.944a1.542 1.542 0 0 1 1.436.982l18.8 48.4a1.54 1.54 0 0 1-1.436 2.109z" class="cls-3" data-name="Path 1217" transform="translate(-3224.593 -1508.628)"/>
            </g>
            <g id="Group_1169" data-name="Group 1169" transform="translate(121.774)">
                <path id="Path_1218" d="M3657.788 1061.423a31.169 31.169 0 0 1-17.181-59.923z" class="cls-7" data-name="Path 1218" transform="translate(-3618.1 -1001.5)"/>
                <path id="Line_125" d="M0 0L0 11.108" class="cls-7" data-name="Line 125" transform="translate(31.162 61.105)"/>
                <circle id="Ellipse_114" cx="26.398" cy="26.398" r="26.398" fill="#fff" stroke="#3fb1b5" stroke-miterlimit="10" data-name="Ellipse 114" transform="translate(4.763 3.545)"/>
                <path id="Path_1219" d="M3751.281 1373.672H3729.3l10.908-5.472z" class="cls-3" data-name="Path 1219" transform="translate(-3709.083 -1301.531)"/>
            </g>
            <path id="Path_1220" d="M3140.361 1398.7v322.216h-9.945v-23.453a9.458 9.458 0 0 0-9.454-9.454H2967.59a9.458 9.458 0 0 0-9.454 9.454v23.453h-9.836V1398.7z" class="cls-4" data-name="Path 1220" transform="translate(-2948.3 -1326.807)"/>
            <path id="Path_1221" fill="none" stroke="#3fb1b5" stroke-miterlimit="10" d="M3169.926 2693.233H3005.1a3.8 3.8 0 0 1-3.8-3.8V2642a3.8 3.8 0 0 1 3.8-3.8h164.825a3.8 3.8 0 0 1 3.8 3.8v47.434a3.8 3.8 0 0 1-3.799 3.799z" data-name="Path 1221" transform="translate(-2991.664 -2340.958)"/>
            <g id="Group_1170" data-name="Group 1170" transform="translate(18.053 21.071)">
                <path id="Path_1222" d="M3453.59 1155.3v44.252h-15.49z" class="cls-2" data-name="Path 1222" transform="translate(-3367.105 -1148.41)"/>
                <path id="Path_1223" d="M3134.086 1124.291l-.109.327-15.29 43.924H3047.6l15.29-43.924.491-1.4c2.291-3.291 8.635-5.691 16.2-5.818h.727c8.836 0 16.708 3.072 18.144 7.109 1.418-4.036 8.945-7.109 17.781-7.109 8.653 0 16.235 2.964 17.853 6.891z" class="cls-3" data-name="Path 1223" transform="translate(-3047.6 -1117.4)"/>
                <path id="Line_126" d="M15.435 0L0 43.125" class="cls-8" data-name="Line 126" transform="translate(35.398 7.109)"/>
                <path id="Path_1224" d="M3082.962 1363.136H3047.6c1.309-4.091 8.654-7.236 17.49-7.236 8.872 0 16.563 3.145 17.872 7.236z" class="cls-6" data-name="Path 1224" transform="translate(-3047.6 -1312.539)"/>
                <path id="Path_1225" d="M3278.961 1363.136H3243.6c1.309-4.091 8.654-7.236 17.49-7.236 8.872 0 16.562 3.145 17.871 7.236z" class="cls-6" data-name="Path 1225" transform="translate(-3207.966 -1312.539)"/>
            </g>
            <path id="Path_1226" d="M3410.4 2703.882a2.58 2.58 0 0 1 2.582-2.581h19.29a2.58 2.58 0 0 1 2.582 2.581" class="cls-4" data-name="Path 1226" transform="translate(-3326.387 -2392.518)"/>
            <path id="Line_127" d="M0 0L192.06 0" class="cls-4" data-name="Line 127" transform="translate(0 216.701)"/>
            <path id="Line_128" d="M0 0L192.06 0" class="cls-4" data-name="Line 128" transform="translate(0 144.419)"/>
            <path id="Line_129" d="M0 0L192.06 0" class="cls-4" data-name="Line 129" transform="translate(0 288.965)"/>
            <path id="Path_1227" fill="none" stroke="#9a3b82" stroke-linecap="round" stroke-linejoin="round" stroke-miterlimit="10" d="M2971.935 1027.1l-23.635 67.559h192.061L3164 1027.1" data-name="Path 1227" transform="translate(-2948.3 -1022.446)"/>
        </g>
        <g id="PLANT" transform="translate(127.104 225.356)">
            <g id="Group_1173" data-name="Group 1173" transform="translate(45.078 114.975)">
                <path id="Path_1228" d="M3960.059 2933.562a29.263 29.263 0 0 1-1.909 10.417 12.2 12.2 0 0 1-11.436 7.818h-38.488a12.18 12.18 0 0 1-11.417-7.818 29.263 29.263 0 0 1-1.909-10.417 30.381 30.381 0 0 1 14.108-25.417V2902c0 2.691 8.272 4.872 18.453 4.872 10.2 0 18.453-2.181 18.453-4.872v6.163a30.275 30.275 0 0 1 14.145 25.399z" class="cls-5" data-name="Path 1228" transform="translate(-3894.9 -2897.127)"/>
                <g id="Group_1171" data-name="Group 1171" transform="translate(14.145 9.345)">
                    <path id="Path_1229" fill="#fff" d="M4009.607 2926.6v1.636c-2.927 2.327-10.89 3.563-18.454 3.563s-15.526-1.236-18.453-3.563v-1.636c.345.782 1.818 1.8 5.091 2.654a62.1 62.1 0 0 0 26.726 0c3.272-.872 4.726-1.89 5.09-2.654z" data-name="Path 1229" transform="translate(-3972.7 -2926.6)"/>
                </g>
                <path id="Path_1230" d="M4009.607 2880.072c0 2.691-8.272 4.873-18.454 4.873s-18.453-2.182-18.453-4.873a1.605 1.605 0 0 1 .382-1c1.745-2.2 9.163-3.873 18.072-3.873s16.326 1.655 18.071 3.873a1.719 1.719 0 0 1 .382 1z" class="cls-1" data-name="Path 1230" transform="translate(-3958.555 -2875.2)"/>
                <g id="Group_1172" data-name="Group 1172" transform="translate(4.363 15.417)">
                    <circle id="Ellipse_115" cx="2.327" cy="2.327" r="2.327" class="cls-7" data-name="Ellipse 115" transform="translate(1.2 8.636)"/>
                    <circle id="Ellipse_116" cx="2.327" cy="2.327" r="2.327" class="cls-7" data-name="Ellipse 116" transform="translate(9.09 14.363)"/>
                    <circle id="Ellipse_117" cx="2.327" cy="2.327" r="2.327" class="cls-7" data-name="Ellipse 117" transform="translate(18.908 7.563)"/>
                    <circle id="Ellipse_118" cx="2.327" cy="2.327" r="2.327" class="cls-7" data-name="Ellipse 118" transform="translate(17.526 23.017)"/>
                    <circle id="Ellipse_119" cx="2.327" cy="2.327" r="2.327" class="cls-7" data-name="Ellipse 119" transform="translate(8.799 29.798)"/>
                    <circle id="Ellipse_120" cx="2.327" cy="2.327" r="2.327" class="cls-7" data-name="Ellipse 120" transform="translate(0 23.017)"/>
                    <circle id="Ellipse_121" cx="2.327" cy="2.327" r="2.327" class="cls-7" data-name="Ellipse 121" transform="translate(10.363)"/>
                    <circle id="Ellipse_122" cx="2.327" cy="2.327" r="2.327" class="cls-7" data-name="Ellipse 122" transform="translate(28.889 1.764)"/>
                    <circle id="Ellipse_123" cx="2.327" cy="2.327" r="2.327" class="cls-7" data-name="Ellipse 123" transform="translate(26.944 15.872)"/>
                    <circle id="Ellipse_124" cx="2.327" cy="2.327" r="2.327" class="cls-7" data-name="Ellipse 124" transform="translate(33.671 25.144)"/>
                    <circle id="Ellipse_125" cx="2.327" cy="2.327" r="2.327" class="cls-7" data-name="Ellipse 125" transform="translate(24.944 32.125)"/>
                    <circle id="Ellipse_126" cx="2.327" cy="2.327" r="2.327" class="cls-7" data-name="Ellipse 126" transform="translate(36.161 10.308)"/>
                    <circle id="Ellipse_127" cx="2.327" cy="2.327" r="2.327" class="cls-7" data-name="Ellipse 127" transform="translate(42.906 .764)"/>
                    <circle id="Ellipse_128" cx="2.327" cy="2.327" r="2.327" class="cls-7" data-name="Ellipse 128" transform="translate(50.579 8.49)"/>
                    <circle id="Ellipse_129" cx="2.327" cy="2.327" r="2.327" class="cls-7" data-name="Ellipse 129" transform="translate(41.797 16.108)"/>
                    <circle id="Ellipse_130" cx="2.327" cy="2.327" r="2.327" class="cls-7" data-name="Ellipse 130" transform="translate(52.306 20.98)"/>
                    <circle id="Ellipse_131" cx="2.327" cy="2.327" r="2.327" class="cls-7" data-name="Ellipse 131" transform="translate(45.234 29.925)"/>
                </g>
            </g>
            <g id="Group_1174" data-name="Group 1174">
                <path id="Path_1231" d="M4200.792 2730.009s17.271-9.326 20.126 6.963c3.31 18.817-19.163 35.379-19.163 35.379s-4.835-11.981-17.8-22.308c-11.216-8.926-1.907-32.597 16.837-20.034z" class="cls-3" data-name="Path 1231" transform="translate(-4082.355 -2638.487)"/>
                <path id="Path_1232" d="M4005.355 2318.4c8.2.073 19.98-16.581 8.854-34.852-13.436-22.071-15.744-34.852-15.744-34.852s-19.763 26.144-16.4 46.2c3.691 21.963 23.29 23.504 23.29 23.504z" class="cls-6" data-name="Path 1232" transform="translate(-3920.825 -2247.628)"/>
                <path id="Path_1233" d="M4055.036 2302.487c11.981 3.163 23.362-4.127 23.6-20.744.418-29.38 5.982-38.943 5.982-38.943s-37.325 13.436-42.979 34.307c-5.383 19.893 13.397 25.38 13.397 25.38z" class="cls-3" data-name="Path 1233" transform="translate(-3969.088 -2242.8)"/>
                <path id="Path_1234" d="M3682.833 2650.027c-.437.036-.891.073-1.382.109-25.78 1.927-33.2 25.526-33.2 25.526s-1.582-1.709-1.254-7.618c.618-15.235 14.635-30.98 30.635-20.98 1.783 1.127 3.528 2.09 5.201 2.963z" class="cls-6" data-name="Path 1234" transform="translate(-3646.954 -2570.995)"/>
                <path id="Path_1235" d="M3712.706 2571.411c-4.545.291-14.926 1.545-29.234-5.8-1.672-.854-3.418-1.836-5.2-2.963-16-10-29.653 5.745-30.271 20.981-.036.745.146 1.49.182 2.218-1.509-13.236-1.473-46.179 38.579-45.07 27.526.8 25.944 30.634 25.944 30.634z" class="cls-3" data-name="Path 1235" transform="translate(-3647.593 -2486.58)"/>
                <path id="Path_1236" d="M3773.878 2634.487s4.745-66.123-59.378-57.488" class="cls-7" data-name="Path 1236" transform="translate(-3702.22 -2515.603)"/>
                <path id="Path_1237" d="M4131.974 2242.8c-40.4 41.27-32.871 118.883-32.871 118.883-4.253-29.689 21.854-59.2 35.762-28.144 4.145 9.236.963 43.106.963 43.106" class="cls-7" data-name="Path 1237" transform="translate(-4016.446 -2242.8)"/>
            </g>
        </g>
    </g>
</svg>
