<svg xmlns="http://www.w3.org/2000/svg" width="51" height="51" viewBox="0 0 51 51">
    <g id="icon-remotely" transform="translate(-460.711 -839.711)">
        <g id="Group_1498" data-name="Group 1498" transform="translate(460.868 839.868)">
            <rect id="Rectangle_5" width="51" height="51" fill="#fe5244" data-name="Rectangle 5" rx="25.5" transform="translate(-.157 -.157)"/>
        </g>
        <path id="laptop" fill="#fff" d="M34.083 59.757a3.16 3.16 0 0 1-4.34 0 2.86 2.86 0 0 1 0-4.164 3.16 3.16 0 0 1 4.34 0 2.859 2.859 0 0 1 0 4.164zm5.353-9.3a10.954 10.954 0 0 0-15.046 0 1.526 1.526 0 0 0 0 2.221 1.686 1.686 0 0 0 2.315 0 7.583 7.583 0 0 1 10.416 0 1.667 1.667 0 0 0 1.157.46 1.565 1.565 0 0 0 1.158-2.68zm-18.808-3.608a16.429 16.429 0 0 1 22.569 0 1.668 1.668 0 0 0 1.157.46 1.565 1.565 0 0 0 1.157-2.681 19.8 19.8 0 0 0-27.2 0 1.526 1.526 0 0 0 0 2.221 1.687 1.687 0 0 0 2.315 0z" transform="translate(454.298 815.292)"/>
    </g>
</svg>
