<svg xmlns="http://www.w3.org/2000/svg" width="51" height="51" viewBox="0 0 51 51">
    <g id="icon-availble" transform="translate(-953.002 -839.002)">
        <rect id="Rectangle_5" width="51" height="51" fill="#28b67a" data-name="Rectangle 5" rx="25.5" transform="translate(953.002 839.002)"/>
        <path id="Path_170" fill="#fff" d="M35.415 14.269l-2.047-1.934a.459.459 0 0 0-.326-.128.44.44 0 0 0-.326.128L18.529 25.469l-5.164-4.745a.478.478 0 0 0-.651 0l-2.07 1.9a.4.4 0 0 0 0 .609l6.513 5.985a2.138 2.138 0 0 0 1.361.609 2.234 2.234 0 0 0 1.349-.588h.012l15.548-14.361a.43.43 0 0 0-.012-.609z" data-name="Path 170" transform="translate(955.476 843.485)"/>
    </g>
</svg>
