<svg xmlns="http://www.w3.org/2000/svg" id="icon-delivery" width="65" height="65" viewBox="0 0 65 65">
    <defs>
        <style>
            .cls-2{fill:#fff}
        </style>
    </defs>
    <rect id="Rectangle_5" width="65" height="65" fill="#9a3b82" data-name="Rectangle 5" rx="32.5"/>
    <g id="delivery" transform="translate(11 17)">
        <g id="Group_2601" data-name="Group 2601">
            <g id="Group_2600" data-name="Group 2600">
                <path id="Path_4214" d="M40.814 74.532a2.718 2.718 0 0 0-.433-1.523L36.733 67.1a3.022 3.022 0 0 0-2.533-1.4h-5.259v-5.358a.58.58 0 0 0-.618-.609H6.122a.58.58 0 0 0-.618.609v3.532H3.092a.609.609 0 1 0 0 1.218H5.5v2.8H1.855a.609.609 0 1 0 0 1.218H5.5v2.8H.618a.609.609 0 1 0 0 1.218H5.5v12.55a.58.58 0 0 0 .618.609h5.009v.3a4.269 4.269 0 0 0 8.534 0v-.3h9.09v.3a4.269 4.269 0 0 0 8.534 0v-.3h3.092a.58.58 0 0 0 .623-.609c-.186-10.478-.186-.67-.186-11.146zm-34.074-1.4h11.07a.58.58 0 0 0 .618-.609.615.615 0 0 0-.618-.609H6.741v-2.8h12.924a.609.609 0 1 0 0-1.218H6.741v-2.8H21.52a.609.609 0 1 0 0-1.218H6.741v-2.927H27.7v15.043H6.741zm0 4.081H27.7v2.132H6.741zm8.6 12.363a3 3 0 0 1-3.03-2.923 2.961 2.961 0 0 1 3.03-2.923 2.925 2.925 0 1 1 0 5.847zm17.563 0a3 3 0 0 1-3.03-2.923 2.961 2.961 0 0 1 3.03-2.923 3 3 0 0 1 3.03 2.923 3.085 3.085 0 0 1-3.033 2.923zm6.679-4.507h-2.787a4.3 4.3 0 0 0-7.915 0h-9.586a4.3 4.3 0 0 0-7.915 0h-4.7v-4.507h32.9zm0-5.725H28.941V66.98H34.2a1.746 1.746 0 0 1 1.484.792l3.646 5.908a1.383 1.383 0 0 1 .247.853z" class="cls-2" data-name="Path 4214" transform="translate(0 -59.733)"/>
            </g>
        </g>
        <g id="Group_2603" data-name="Group 2603" transform="translate(30.72 8.917)">
            <g id="Group_2602" data-name="Group 2602">
                <path id="Path_4215" d="M392.115 178.786l-2.663-4.273a1.592 1.592 0 0 0-1.3-.743h-1.982a.585.585 0 0 0-.619.619v4.83a.675.675 0 0 0 .681.619h5.449a.585.585 0 0 0 .619-.619.562.562 0 0 0-.185-.433zm-5.264-.186v-3.53h1.362a.322.322 0 0 1 .248.124l2.105 3.406h-3.716z" class="cls-2" data-name="Path 4215" transform="translate(-385.551 -173.77)"/>
            </g>
        </g>
    </g>
</svg>
