<svg xmlns="http://www.w3.org/2000/svg" id="icon-demands" width="65" height="65" viewBox="0 0 65 65">
    <defs>
        <style>
            .cls-2{fill:#fff}
        </style>
    </defs>
    <rect id="Rectangle_5" width="65" height="65" fill="#fe5244" data-name="Rectangle 5" rx="32.5"/>
    <g id="document_2_" data-name="document (2)" transform="translate(17.999 15)">
        <g id="Group_2595" data-name="Group 2595">
            <g id="Group_2594" data-name="Group 2594">
                <path id="Path_4205" d="M31.769 7.53l-.8-.265a2.4 2.4 0 0 0-.65-.106 2.167 2.167 0 0 0-2 1.538l-.45 1.432V9.015a.67.67 0 0 0-.2-.424L19.459.159a.526.526 0 0 0-.35-.159H3.046a.487.487 0 0 0-.5.53v1.644H.694a.487.487 0 0 0-.5.53V34.47a.487.487 0 0 0 .5.53h24.319a.487.487 0 0 0 .5-.53v-1.644h1.851a.487.487 0 0 0 .5-.53v-7.16l1.4-2.015.05-.159 3.756-12.674a2.144 2.144 0 0 0-1.301-2.758zM19.609 1.8l6.555 6.682h-6.555zm4.9 32.136H1.195V3.235h1.351V32.3a.487.487 0 0 0 .5.53h21.467v1.114zm2.4-2.174H3.547V1.061h15.061v7.954a.487.487 0 0 0 .5.53h7.806v3.977l-2.352 7.848v.159l.1 6.735a.5.5 0 0 0 .35.477.462.462 0 0 0 .55-.212l1.351-1.909v5.144zm-1.3-5.144l-.1-4.4 2.5.848zm6.56-16.648l-3.6 12.144-2.9-1.008 3.6-12.091a1.076 1.076 0 0 1 1.351-.742l.8.265a1.131 1.131 0 0 1 .749 1.432z" class="cls-2" data-name="Path 4205" transform="translate(-.194)"/>
                <path id="Path_4206" d="M94.844 50.18h7.682a.5.5 0 0 0 .533-.533V44.2a.5.5 0 0 0-.533-.533h-7.682a.5.5 0 0 0-.533.533v5.442a.574.574 0 0 0 .533.538zm.534-5.442h6.615v4.375h-6.615z" class="cls-2" data-name="Path 4206" transform="translate(-88.193 -40.577)"/>
                <path id="Path_4207" d="M79.786 192.315H96a.533.533 0 1 0 0-1.067H79.786a.533.533 0 1 0 0 1.067z" class="cls-2" data-name="Path 4207" transform="translate(-74.648 -177.781)"/>
                <path id="Path_4208" d="M79.786 247.28H96a.533.533 0 1 0 0-1.067H79.786a.533.533 0 1 0 0 1.067z" class="cls-2" data-name="Path 4208" transform="translate(-74.648 -228.875)"/>
                <path id="Path_4209" d="M79.786 302.244H96a.533.533 0 0 0 0-1.067H79.786a.533.533 0 0 0 0 1.067z" class="cls-2" data-name="Path 4209" transform="translate(-74.648 -279.969)"/>
                <path id="Path_4210" d="M96.485 356.675a.5.5 0 0 0-.533-.533H79.786a.533.533 0 1 0 0 1.067H96a.526.526 0 0 0 .485-.534z" class="cls-2" data-name="Path 4210" transform="translate(-74.645 -331.063)"/>
                <path id="Path_4211" d="M234.665 411.106h-8.056a.533.533 0 1 0 0 1.067h8a.5.5 0 0 0 .533-.533.493.493 0 0 0-.477-.534z" class="cls-2" data-name="Path 4211" transform="translate(-211.409 -382.188)"/>
            </g>
        </g>
    </g>
</svg>
